<?xml version="1.0" encoding="UTF-8" standalone="no"?>
<!-- Created with Inkscape (http://www.inkscape.org/) -->

<svg
   version="1.1"
   id="svg2"
   width="892.12799"
   height="351.89868"
   viewBox="0 0 892.12799 351.89868"
   sodipodi:docname="Tavec.ai"
   xmlns:inkscape="http://www.inkscape.org/namespaces/inkscape"
   xmlns:sodipodi="http://sodipodi.sourceforge.net/DTD/sodipodi-0.dtd"
   xmlns="http://www.w3.org/2000/svg"
   xmlns:svg="http://www.w3.org/2000/svg">
  <defs
     id="defs6" />
  <sodipodi:namedview
     id="namedview4"
     pagecolor="#ffffff"
     bordercolor="#000000"
     borderopacity="0.25"
     inkscape:showpageshadow="2"
     inkscape:pageopacity="0.0"
     inkscape:pagecheckerboard="0"
     inkscape:deskcolor="#d1d1d1" />
  <g
     id="g8"
     inkscape:groupmode="layer"
     inkscape:label="Tavec"
     transform="matrix(1.3333333,0,0,-1.3333333,0,351.89867)">
    <path
       d="M 509.879,57.047 H 397.506 V 25.832 h 112.373 z"
       style="fill:#000000;fill-opacity:1;fill-rule:nonzero;stroke:#000000;stroke-width:2.687;stroke-linecap:butt;stroke-linejoin:miter;stroke-miterlimit:10;stroke-dasharray:none;stroke-opacity:1"
       id="path10" />
    <path
       d="m 397.506,153.812 h 112.373 v 31.215 H 397.506 Z"
       style="fill:#000000;fill-opacity:1;fill-rule:nonzero;stroke:#000000;stroke-width:2.687;stroke-linecap:butt;stroke-linejoin:miter;stroke-miterlimit:10;stroke-dasharray:none;stroke-opacity:1"
       id="path12" />
    <path
       d="m 397.506,91.383 h 112.373 v 31.215 H 397.506 Z"
       style="fill:#000000;fill-opacity:1;fill-rule:nonzero;stroke:#000000;stroke-width:2.687;stroke-linecap:butt;stroke-linejoin:miter;stroke-miterlimit:10;stroke-dasharray:none;stroke-opacity:1"
       id="path14" />
    <g
       id="g16"
       transform="translate(644.1019,153.812)">
      <path
         d="M 0,0 V 31.215 H -112.373 V 28.093 0 v -96.766 -23.41 -7.804 H 0 v 31.214 H -81.158 V 0 Z"
         style="fill:#000000;fill-opacity:1;fill-rule:nonzero;stroke:none"
         id="path18" />
    </g>
    <g
       id="g20"
       transform="translate(644.1019,153.812)">
      <path
         d="M 0,0 V 31.215 H -112.373 V 28.093 0 v -96.766 -23.41 -7.804 H 0 v 31.214 H -81.158 V 0 Z"
         style="fill:none;stroke:#000000;stroke-width:3.086;stroke-linecap:butt;stroke-linejoin:miter;stroke-miterlimit:10;stroke-dasharray:none;stroke-opacity:1"
         id="path22" />
    </g>
    <g
       id="g24"
       transform="translate(175.8836,140.5459)">
      <path
         d="m 0,0 96.699,-113.426 h 41.019 L 1.212,46.692 H 0.27 L 0,46.461 v 0.231 H -31.215 V -112.503 H 0 Z"
         style="fill:#000000;fill-opacity:1;fill-rule:nonzero;stroke:none"
         id="path26" />
    </g>
    <g
       id="g28"
       transform="translate(175.8836,140.5459)">
      <path
         d="m 0,0 96.699,-113.426 h 41.019 L 1.212,46.692 H 0.27 L 0,46.461 v 0.231 H -31.215 V -112.503 H 0 Z"
         style="fill:none;stroke:#000000;stroke-width:2.687;stroke-linecap:butt;stroke-linejoin:miter;stroke-miterlimit:10;stroke-dasharray:none;stroke-opacity:1"
         id="path30" />
    </g>
    <g
       id="g32"
       transform="translate(342.4166,74.5674)">
      <path
         d="m 0,0 -96.699,113.426 h -41.019 L -1.212,-46.692 H -0.27 L 0,-46.461 v -0.231 H 31.215 V 112.503 H 0 Z"
         style="fill:#000000;fill-opacity:1;fill-rule:nonzero;stroke:none"
         id="path34" />
    </g>
    <g
       id="g36"
       transform="translate(342.4166,74.5674)">
      <path
         d="m 0,0 -96.699,113.426 h -41.019 L -1.212,-46.692 H -0.27 L 0,-46.461 v -0.231 H 31.215 V 112.503 H 0 Z"
         style="fill:none;stroke:#000000;stroke-width:2.687;stroke-linecap:butt;stroke-linejoin:miter;stroke-miterlimit:10;stroke-dasharray:none;stroke-opacity:1"
         id="path38" />
    </g>
    <g
       id="g40"
       transform="translate(189.214,238.0917)">
      <path
         d="m 0,0 h -164.22 v -31.215 h 66.61 v -180.538 h 31.215 V -31.215 H 0 Z"
         style="fill:#000000;fill-opacity:1;fill-rule:nonzero;stroke:none"
         id="path42" />
    </g>
    <g
       id="g44"
       transform="translate(189.214,238.0917)">
      <path
         d="m 0,0 h -164.22 v -31.215 h 66.61 v -180.538 h 31.215 V -31.215 H 0 Z"
         style="fill:none;stroke:#000000;stroke-width:3.121;stroke-linecap:butt;stroke-linejoin:miter;stroke-miterlimit:10;stroke-dasharray:none;stroke-opacity:1"
         id="path46" />
    </g>
  </g>
</svg>
